<svg width="509" height="160" viewBox="0 0 509 160" fill="none" xmlns="http://www.w3.org/2000/svg">
<circle cx="80" cy="80" r="78.5" stroke="#fff" stroke-width="3"/>
<circle cx="80" cy="80" r="68.5" stroke="#fff" stroke-width="3"/>
<circle cx="80" cy="41" r="18.5" stroke="#fff" stroke-width="3"/>
<circle cx="80" cy="119" r="18.5" stroke="#fff" stroke-width="3"/>
<circle cx="41" cy="80" r="18.5" stroke="#fff" stroke-width="3"/>
<circle cx="119" cy="80" r="18.5" stroke="#fff" stroke-width="3"/>
<rect x="80" y="157" width="80" height="3" fill="#fff"/>
<rect x="184" width="4" height="160" fill="#fff"/>
<path d="M215.6 83L223.76 41H229.82L240.05 67.91L250.28 41H256.34L264.5 83H257.03L251.99 57.02L242.54 82.04H237.53L228.08 57.02L223.07 83H215.6ZM281.71 83.78C278.95 83.78 276.43 83.07 274.15 81.65C271.89 80.23 270.08 78.33 268.72 75.95C267.38 73.55 266.71 70.9 266.71 68C266.71 65.8 267.1 63.75 267.88 61.85C268.66 59.93 269.73 58.25 271.09 56.81C272.47 55.35 274.07 54.21 275.89 53.39C277.71 52.57 279.65 52.16 281.71 52.16C284.47 52.16 286.98 52.87 289.24 54.29C291.52 55.71 293.33 57.62 294.67 60.02C296.03 62.42 296.71 65.08 296.71 68C296.71 70.18 296.32 72.22 295.54 74.12C294.76 76.02 293.68 77.7 292.3 79.16C290.94 80.6 289.35 81.73 287.53 82.55C285.73 83.37 283.79 83.78 281.71 83.78ZM281.71 76.46C283.17 76.46 284.48 76.07 285.64 75.29C286.8 74.51 287.71 73.48 288.37 72.2C289.05 70.92 289.39 69.52 289.39 68C289.39 66.44 289.04 65.02 288.34 63.74C287.66 62.44 286.73 61.41 285.55 60.65C284.39 59.87 283.11 59.48 281.71 59.48C280.27 59.48 278.97 59.87 277.81 60.65C276.65 61.43 275.73 62.47 275.05 63.77C274.37 65.07 274.03 66.48 274.03 68C274.03 69.58 274.38 71.01 275.08 72.29C275.78 73.57 276.71 74.59 277.87 75.35C279.05 76.09 280.33 76.46 281.71 76.46ZM318.545 83H309.095L298.175 52.97H305.975L313.835 74.57L321.665 52.97H329.465L318.545 83ZM333.901 53H341.221V83H333.901V53ZM337.621 49.13C336.541 49.13 335.631 48.78 334.891 48.08C334.151 47.36 333.781 46.46 333.781 45.38C333.781 44.32 334.151 43.43 334.891 42.71C335.631 41.99 336.531 41.63 337.591 41.63C338.651 41.63 339.541 41.99 340.261 42.71C341.001 43.43 341.371 44.32 341.371 45.38C341.371 46.46 341.011 47.36 340.291 48.08C339.571 48.78 338.681 49.13 337.621 49.13ZM360.929 83.78C358.169 83.78 355.649 83.07 353.369 81.65C351.109 80.23 349.299 78.32 347.939 75.92C346.599 73.52 345.929 70.87 345.929 67.97C345.929 65.79 346.319 63.75 347.099 61.85C347.879 59.93 348.949 58.25 350.309 56.81C351.689 55.35 353.289 54.21 355.109 53.39C356.929 52.57 358.869 52.16 360.929 52.16C363.269 52.16 365.409 52.66 367.349 53.66C369.309 54.64 370.969 55.99 372.329 57.71C373.689 59.43 374.679 61.39 375.299 63.59C375.919 65.79 376.059 68.09 375.719 70.49H353.789C354.069 71.61 354.529 72.62 355.169 73.52C355.809 74.4 356.619 75.11 357.599 75.65C358.579 76.17 359.689 76.44 360.929 76.46C362.209 76.48 363.369 76.18 364.409 75.56C365.469 74.92 366.349 74.06 367.049 72.98L374.519 74.72C373.299 77.38 371.479 79.56 369.059 81.26C366.639 82.94 363.929 83.78 360.929 83.78ZM353.549 65H368.309C368.089 63.8 367.619 62.72 366.899 61.76C366.199 60.78 365.329 60 364.289 59.42C363.249 58.84 362.129 58.55 360.929 58.55C359.729 58.55 358.619 58.84 357.599 59.42C356.579 59.98 355.709 60.75 354.989 61.73C354.289 62.69 353.809 63.78 353.549 65ZM396.091 52.16C399.011 52.16 401.671 52.87 404.071 54.29C406.471 55.71 408.381 57.62 409.801 60.02C411.221 62.4 411.931 65.04 411.931 67.94C411.931 70.12 411.521 72.17 410.701 74.09C409.881 76.01 408.741 77.7 407.281 79.16C405.841 80.6 404.161 81.73 402.241 82.55C400.341 83.37 398.291 83.78 396.091 83.78C394.211 83.78 392.541 83.36 391.081 82.52C389.641 81.66 388.431 80.55 387.451 79.19V83H380.131V38H387.451V56.75C388.431 55.39 389.641 54.29 391.081 53.45C392.541 52.59 394.211 52.16 396.091 52.16ZM396.001 76.7C397.561 76.7 398.971 76.31 400.231 75.53C401.511 74.73 402.531 73.67 403.291 72.35C404.051 71.03 404.431 69.56 404.431 67.94C404.431 66.34 404.051 64.88 403.291 63.56C402.531 62.22 401.511 61.16 400.231 60.38C398.951 59.6 397.541 59.21 396.001
59.21C394.481 59.21 393.121 59.61 391.921 60.41C390.721 61.19 389.781 62.25 389.101 63.59C388.421 64.91 388.081 66.36 388.081 67.94C388.081 69.56 388.421 71.04 389.101 72.38C389.781 73.7 390.721 74.75 391.921 75.53C393.121 76.31 394.481 76.7 396.001 76.7ZM439.372 53H446.692V83H439.372L439.042 79.28C438.222 80.62 437.132 81.71 435.772 82.55C434.432 83.37 432.842 83.78 431.002 83.78C428.782 83.78 426.702 83.36 424.762 82.52C422.822 81.68 421.112 80.52 419.632 79.04C418.172 77.56 417.022 75.85 416.182 73.91C415.362 71.97 414.952 69.89 414.952 67.67C414.952 65.53 415.342 63.52 416.122 61.64C416.922 59.76 418.032 58.11 419.452 56.69C420.872 55.27 422.512 54.16 424.372 53.36C426.232 52.56 428.232 52.16 430.372 52.16C432.352 52.16 434.122 52.6 435.682 53.48C437.262 54.36 438.602 55.48 439.702 56.84L439.372 53ZM430.822 76.73C432.382 76.73 433.762 76.34 434.962 75.56C436.162 74.78 437.102 73.73 437.782 72.41C438.462 71.07 438.802 69.6 438.802 68C438.802 66.38 438.462 64.91 437.782 63.59C437.102 62.25 436.152 61.19 434.932 60.41C433.732 59.63 432.362 59.24 430.822 59.24C429.282 59.24 427.872 59.64 426.592 60.44C425.332 61.22 424.322 62.27 423.562 63.59C422.822 64.91 422.452 66.38 422.452 68C422.452 69.62 422.832 71.09 423.592 72.41C424.352 73.73 425.362 74.78 426.622 75.56C427.902 76.34 429.302 76.73 430.822 76.73ZM461.52 83.54C459.96 83.44 458.45 83.13 456.99 82.61C455.55 82.07 454.27 81.34 453.15 80.42C452.03 79.5 451.17 78.4 450.57 77.12L456.75 74.48C456.99 74.88 457.38 75.31 457.92 75.77C458.46 76.21 459.1 76.58 459.84 76.88C460.6 77.18 461.43 77.33 462.33 77.33C463.09 77.33 463.81 77.23 464.49 77.03C465.19 76.81 465.75 76.48 466.17 76.04C466.61 75.6 466.83 75.03 466.83 74.33C466.83 73.59 466.57 73.02 466.05 72.62C465.55 72.2 464.91 71.89 464.13 71.69C463.37 71.47 462.63 71.27 461.91 71.09C460.01 70.71 458.24 70.12 456.6 69.32C454.98 68.52 453.67 67.49 452.67 66.23C451.69 64.95 451.2 63.41 451.2 61.61C451.2 59.63 451.72 57.92 452.76 56.48C453.82 55.04 455.19 53.93 456.87 53.15C458.57 52.37 460.4 51.98 462.36 51.98C464.74 51.98 466.92 52.48 468.9 53.48C470.9 54.46 472.48 55.85 473.64 57.65L467.85 61.07C467.57 60.59 467.18 60.15 466.68 59.75C466.18 59.33 465.61 58.99 464.97 58.73C464.33 58.45 463.66 58.29 462.96 58.25C462.06 58.21 461.24 58.29 460.5 58.49C459.76 58.69 459.16 59.03 458.7 59.51C458.26 59.99 458.04 60.63 458.04 61.43C458.04 62.19 458.34 62.76 458.94 63.14C459.54 63.5 460.26 63.78 461.1 63.98C461.96 64.18 462.78 64.4 463.56 64.64C465.32 65.22 466.97 65.93 468.51 66.77C470.07 67.61 471.32 68.64 472.26 69.86C473.2 71.08 473.65 72.54 473.61 74.24C473.61 76.18 473.03 77.88 471.87 79.34C470.71 80.78 469.21 81.88 467.37 82.64C465.55 83.4 463.6 83.7 461.52 83.54ZM491.476 83.78C488.716 83.78 486.196 83.07 483.916 81.65C481.656 80.23 479.846 78.32 478.486 75.92C477.146 73.52 476.476 70.87 476.476 67.97C476.476 65.79 476.866 63.75 477.646 61.85C478.426 59.93 479.496 58.25 480.856 56.81C482.236 55.35 483.836 54.21 485.656 53.39C487.476 52.57 489.416 52.16 491.476 52.16C493.816 52.16 495.956 52.66 497.896 53.66C499.856 54.64 501.516 55.99 502.876 57.71C504.236 59.43 505.226 61.39 505.846 63.59C506.466 65.79 506.606 68.09 506.266 70.49H484.336C484.616 71.61 485.076 72.62 485.716 73.52C486.356 74.4 487.166 75.11 488.146 75.65C489.126 76.17 490.236 76.44 491.476 76.46C492.756 76.48 493.916 76.18 494.956 75.56C496.016 74.92 496.896 74.06 497.596 72.98L505.066 74.72C503.846 77.38 502.026 79.56 499.606 81.26C497.186 82.94 494.476 83.78 491.476 83.78ZM484.096 65H498.856C498.636 63.8 498.166 62.72 497.446 61.76C496.746 60.78 495.876 60 494.836 59.42C493.796 58.84 492.676 58.55 491.476 58.55C490.276 58.55 489.166 58.84 488.146 59.42C487.126 59.98 486.256 60.75 485.536 61.73C484.836 62.69 484.356 63.78 484.096 65Z" fill="#fff"/>
<path d="M219.364 125C219.215 125 219.084 124.953 218.972 124.86C218.879 124.767 218.832 124.655 218.832 124.524V120.856C218.832 120.632 218.356 120.427 217.404 120.24C216.452 120.053 215.668 119.96 215.052 119.96C215.015 119.96 214.949 120.1 214.856 120.38C214.781 120.66 214.725 120.865 214.688 120.996C214.445 121.967 214.203 123.003 213.96 124.104L213.82 124.72C213.783 124.869 213.689 124.944 213.54 124.944C213.391 124.944 213.251 124.897 213.12 124.804C213.008 124.711 212.952 124.599 212.952 124.468L212.98 124.412V124.384L213.288 122.984C213.512 122.107 213.708 121.248 213.876 120.408C214.063 119.456 214.203 118.84 214.296 118.56C214.445 117.944 214.744 116.404 215.192 113.94L215.36 113.016C215.845 110.141 216.181 108.331 216.368 107.584C216.461 107.136 216.629 106.473 216.872 105.596C216.965 105.223 217.096 104.849 217.264 104.476C217.432 104.159 217.572 104 217.684 104C217.983 104 218.197 104.093 218.328 104.28C218.421 104.448 218.561 105.372 218.748 107.052C218.953 108.732 219.131 110.431 219.28 112.148L219.644 116.796C219.644 117.599 219.7 118.812 219.812 120.436C219.924 122.079 219.98 123.301 219.98 124.104V124.216C219.98 124.421 219.952 124.608 219.896 124.776C219.821 124.925 219.644 125 219.364 125ZM218.244 119.596C218.617 119.596 218.804 119.503 218.804 119.316C218.804 118.159 218.739 116.581 218.608 114.584C218.477 112.568 218.337 110.795 218.188 109.264C218.151 108.611 218.076 107.892 217.964 107.108L217.852 106.016C217.852 106.035 217.833 105.932 217.796 105.708L217.74 105.372C217.591 105.783 217.441 106.352 217.292 107.08C217.161 107.808 217.021 108.667 216.872 109.656C216.424 112.437 216.041 114.528 215.724 115.928L215.472 116.88C215.192 117.813 215.052 118.523 215.052 119.008V119.176C215.873 119.437 216.816 119.568 217.88 119.568H218.048C218.104 119.587 218.169 119.596 218.244 119.596ZM229.487 125.308C229.356 125.308 229.235 125.243 229.123 125.112C229.011 124.981 228.936 124.832 228.899 124.664L228.815 124.132C228.759 123.908 228.731 123.768 228.731 123.712C226.64 116.227 225.492 112.027 225.287 111.112C225.119 110.44 224.736 108.573 224.139 105.512C224.12 105.624 224.111 106.007 224.111 106.66V116.796L224.167 120.8L224.223 124.776L224.055 125H223.411L223.327 124.776C223.364 124.589 223.383 124.216 223.383 123.656L223.355 118.784L223.299 113.912V110.244V107.584C223.28 106.8 223.271 105.923 223.271 104.952C223.271 104.84 223.262 104.737 223.243 104.644V104.364C223.243 104.14 223.299 103.991 223.411 103.916C223.542 103.823 223.738 103.776 223.999 103.776C224.111 103.776 224.232 103.832 224.363 103.944C224.512 104.056 224.606 104.177 224.643 104.308L225.231 107.052C225.492 108.359 225.716 109.348 225.903 110.02C226.295 111.569 226.967 114.108 227.919 117.636C228.46 119.951 228.946 121.724 229.375 122.956C229.487 122.676 229.543 122.228 229.543 121.612C229.543 119.801 229.562 118.177 229.599 116.74L229.655 111.868C229.655 111.065 229.664 110.337 229.683 109.684V107.528L229.655 103.58C229.748 103.319 229.944 103.188 230.243 103.188C230.392 103.188 230.467 103.459 230.467 104C230.467 104.243 230.458 104.439 230.439 104.588C230.439 104.737 230.43 104.849 230.411 104.924C230.411 104.98 230.411 105.017 230.411 105.036V106.828C230.411 109.311 230.402 111.523 230.383 113.464C230.364 115.424 230.355 117.627 230.355 120.072C230.355 120.539 230.327 121.276 230.271 122.284L230.215 124.496C230.215 125.037 229.972 125.308 229.487 125.308ZM236.12 125.336C236.008 125.336 235.914 125.261 235.84 125.112C235.765 124.981 235.728 124.832 235.728 124.664C235.728 124.067 235.756 123.171 235.812 121.976L235.868 119.26C235.868 118.999 235.84 118.616 235.784 118.112C235.709 117.664 235.672 117.291 235.672 116.992C235.672 116.675 235.616 116.236 235.504 115.676C235.392 115.079 235.336 114.649 235.336 114.388C235.336 114.164 235.242 113.632 235.056 112.792C235 112.624 234.962 112.493 234.944 112.4C234.925 112.288 234.906 112.213 234.888 112.176C234.813 111.653 234.692 111.009 234.524 110.244C234.206 108.508 233.898 107.136 233.6 106.128C233.32 105.232 233.18 104.625 233.18 104.308C233.18 104.177 233.236 104.075 233.348 104C233.46
103.907 233.59 103.86 233.74 103.86L234.076 104.084C234.132 104.924 234.384 106.427 234.832 108.592C235.28 110.739 235.616 111.971 235.84 112.288C235.877 112.195 235.97 111.383 236.12 109.852C236.25 108.489 236.437 107.136 236.68 105.792C236.904 104.56 237.174 103.944 237.492 103.944C237.585 103.944 237.66 103.953 237.716 103.972C237.772 103.972 237.818 103.991 237.856 104.028C237.893 104.065 237.912 104.14 237.912 104.252C237.912 104.42 237.874 104.616 237.8 104.84L237.688 105.4L236.96 109.572C236.866 110.113 236.782 110.785 236.708 111.588C236.633 112.372 236.596 113.063 236.596 113.66C236.596 113.828 236.605 113.977 236.624 114.108C236.642 114.257 236.652 114.416 236.652 114.584L236.484 115.004V115.228L236.54 116.32L236.596 116.908C236.652 117.655 236.68 118.215 236.68 118.588C236.68 121.537 236.661 123.423 236.624 124.244L236.708 124.328C236.708 124.365 236.717 124.393 236.736 124.412V124.524C236.736 124.748 236.68 124.935 236.568 125.084C236.474 125.252 236.325 125.336 236.12 125.336ZM248.968 125.168C248.781 125.168 248.641 125.103 248.548 124.972C248.454 124.823 248.408 124.645 248.408 124.44V121.948V119.456L248.352 114.976C248.296 112.979 248.268 111.485 248.268 110.496L248.296 109.684V107.864C248.296 105.848 248.277 104.84 248.24 104.84H245.076C244.926 104.84 244.786 104.803 244.656 104.728C244.544 104.653 244.488 104.551 244.488 104.42C244.488 104.271 244.516 104.168 244.572 104.112C244.628 104.056 244.777 104.009 245.02 103.972C245.281 103.916 245.654 103.888 246.14 103.888H248.94L252.02 103.86C252.244 103.86 252.393 103.897 252.468 103.972C252.561 104.047 252.608 104.168 252.608 104.336C252.608 104.616 252.43 104.756 252.076 104.756H250.816H249.584L249.332 104.784L249.36 106.408V108.592V119.96V122.284L249.388 124.356V124.412C249.388 124.561 249.378 124.692 249.36 124.804C249.341 124.897 249.304 124.972 249.248 125.028C249.192 125.121 249.098 125.168 248.968 125.168ZM257.293 124.888C256.845 124.869 256.276 124.86 255.585 124.86C255.454 124.86 255.333 124.813 255.221 124.72C255.128 124.627 255.081 124.524 255.081 124.412C255.081 124.169 255.24 124.048 255.557 124.048H256.649C256.649 121.901 256.584 119.195 256.453 115.928C256.378 113.315 256.304 111.261 256.229 109.768L256.257 108.34V106.492C256.257 105.559 256.238 104.961 256.201 104.7H255.221C255.034 104.7 254.941 104.569 254.941 104.308C254.941 104.14 255.016 104.009 255.165 103.916C255.296 103.86 255.641 103.832 256.201 103.832H256.985C257.265 103.851 257.62 103.86 258.049 103.86C258.198 103.86 258.32 103.897 258.413 103.972C258.506 104.028 258.553 104.121 258.553 104.252C258.553 104.364 258.525 104.467 258.469 104.56C258.413 104.653 258.329 104.7 258.217 104.7C258.086 104.7 257.974 104.691 257.881 104.672H257.545H257.265C257.078 104.672 256.966 104.691 256.929 104.728L256.873 104.84C256.873 106.296 256.994 109.236 257.237 113.66C257.461 117.748 257.573 120.688 257.573 122.48V123.264C257.554 123.507 257.545 123.759 257.545 124.02H258.553C258.982 124.02 259.197 124.151 259.197 124.412C259.197 124.524 259.15 124.636 259.057 124.748C258.982 124.841 258.898 124.888 258.805 124.888H257.293ZM271.196 125.644C270.953 125.644 270.785 125.579 270.692 125.448C270.617 125.336 270.58 125.14 270.58 124.86V122.312C270.58 121.043 270.543 119.503 270.468 117.692C270.449 117.356 270.44 116.871 270.44 116.236C270.384 114.911 270.356 113.865 270.356 113.1L270.384 111.532C270.403 111.065 270.412 110.543 270.412 109.964C270.412 109.46 270.403 109.012 270.384 108.62C270.365 108.34 270.347 108.107 270.328 107.92C270.328 107.733 270.319 107.584 270.3 107.472L270.244 107.668C270.039 109.031 269.731 110.823 269.32 113.044C268.909 115.265 268.573 117.048 268.312 118.392C268.051 119.587 267.883 120.436 267.808 120.94C267.771 121.183 267.687 121.379 267.556 121.528C267.444 121.677 267.313 121.752 267.164 121.752C267.015 121.752 266.884 121.677 266.772 121.528C266.66 121.379 266.595 121.164 266.576 120.884C266.445 119.988 265.969 117.487 265.148 113.38C264.327 109.273 263.869 107.145 263.776 106.996C263.72 108.676 263.692 110.561 263.692 112.652C263.692 114.295 263.701 115.779 263.72
117.104C263.739 118.429 263.748 119.913 263.748 121.556C263.748 121.836 263.776 122.275 263.832 122.872L263.888 124.216C263.888 124.571 263.823 124.813 263.692 124.944C263.151 124.944 262.88 124.459 262.88 123.488V118.812L262.908 115.984C262.927 115.144 262.936 114.192 262.936 113.128C262.936 111.896 262.945 110.795 262.964 109.824L263.02 106.492V104.028C263.02 103.935 263.057 103.851 263.132 103.776C263.225 103.701 263.319 103.664 263.412 103.664C263.561 103.664 263.664 103.739 263.72 103.888C263.888 104.448 264.308 106.1 264.98 108.844C265.652 111.588 266.156 113.707 266.492 115.2C266.66 116.077 266.931 117.627 267.304 119.848L267.5 118.756C267.556 118.42 267.64 117.953 267.752 117.356C267.976 115.9 268.116 115.079 268.172 114.892L269.46 108.032L269.712 106.576L270.02 105.008L270.16 104.168C270.179 103.981 270.235 103.841 270.328 103.748C270.421 103.636 270.524 103.58 270.636 103.58C270.729 103.58 270.813 103.627 270.888 103.72C270.963 103.813 271 103.944 271 104.112V106.884C271 108.284 271.084 110.403 271.252 113.24C271.383 115.853 271.448 117.953 271.448 119.54C271.448 120.044 271.476 120.819 271.532 121.864C271.569 123.208 271.588 124.141 271.588 124.664C271.588 125.075 271.56 125.345 271.504 125.476C271.429 125.588 271.327 125.644 271.196 125.644ZM276.852 125.168C276.404 125.168 276.087 125.121 275.9 125.028C275.732 124.953 275.648 124.795 275.648 124.552V124.02C275.629 123.871 275.62 123.703 275.62 123.516V123.46L275.648 119.372L275.62 107.808C275.62 106.613 275.601 105.577 275.564 104.7C275.564 104.476 275.611 104.289 275.704 104.14C275.797 103.991 275.919 103.916 276.068 103.916H277.804C278.065 103.916 278.261 103.935 278.392 103.972C278.579 104.028 278.672 104.187 278.672 104.448C278.672 104.597 278.616 104.719 278.504 104.812C278.392 104.905 278.271 104.961 278.14 104.98H277.664L277.216 104.952L276.768 104.924C276.637 104.924 276.544 104.952 276.488 105.008C276.451 105.045 276.432 105.129 276.432 105.26C276.432 106.137 276.441 106.931 276.46 107.64V110.02V113.52C276.46 113.557 276.479 113.576 276.516 113.576H276.544H276.572C277.039 113.539 277.543 113.52 278.084 113.52C278.383 113.52 278.532 113.651 278.532 113.912C278.532 114.099 278.495 114.229 278.42 114.304C278.364 114.36 278.261 114.388 278.112 114.388H276.516C276.441 114.388 276.404 114.435 276.404 114.528L276.46 118.672C276.497 119.96 276.516 121.444 276.516 123.124V124.16H277.72H278.896H279.148C279.484 124.16 279.652 124.281 279.652 124.524C279.652 124.823 279.568 125 279.4 125.056C279.176 125.131 278.719 125.168 278.028 125.168H276.852ZM283.013 126.988C282.807 126.951 282.705 126.885 282.705 126.792C282.705 126.699 282.779 126.549 282.929 126.344C283.097 126.12 283.181 126.008 283.181 126.008C283.311 125.803 283.423 125.541 283.517 125.224C283.573 125.056 283.601 124.925 283.601 124.832C283.619 124.72 283.61 124.655 283.573 124.636C283.349 124.617 283.162 124.524 283.013 124.356C282.882 124.188 282.817 124.011 282.817 123.824C282.817 123.563 282.919 123.357 283.125 123.208C283.349 123.059 283.591 122.984 283.853 122.984C284.151 122.984 284.357 123.087 284.469 123.292C284.599 123.497 284.665 123.731 284.665 123.992C284.665 124.44 284.525 124.953 284.245 125.532C283.965 126.129 283.61 126.605 283.181 126.96L283.013 126.988ZM298.36 125C298.211 125 298.08 124.953 297.968 124.86C297.875 124.767 297.828 124.655 297.828 124.524V120.856C297.828 120.632 297.352 120.427 296.4 120.24C295.448 120.053 294.664 119.96 294.048 119.96C294.011 119.96 293.945 120.1 293.852 120.38C293.777 120.66 293.721 120.865 293.684 120.996C293.441 121.967 293.199 123.003 292.956 124.104L292.816 124.72C292.779 124.869 292.685 124.944 292.536 124.944C292.387 124.944 292.247 124.897 292.116 124.804C292.004 124.711 291.948 124.599 291.948 124.468L291.976 124.412V124.384L292.284 122.984C292.508 122.107 292.704 121.248 292.872 120.408C293.059 119.456 293.199 118.84 293.292 118.56C293.441 117.944 293.74 116.404 294.188 113.94L294.356 113.016C294.841 110.141 295.177 108.331 295.364 107.584C295.457 107.136 295.625 106.473 295.868 105.596C295.961 105.223 296.092 104.849 296.26 104.476C296.428
104.159 296.568 104 296.68 104C296.979 104 297.193 104.093 297.324 104.28C297.417 104.448 297.557 105.372 297.744 107.052C297.949 108.732 298.127 110.431 298.276 112.148L298.64 116.796C298.64 117.599 298.696 118.812 298.808 120.436C298.92 122.079 298.976 123.301 298.976 124.104V124.216C298.976 124.421 298.948 124.608 298.892 124.776C298.817 124.925 298.64 125 298.36 125ZM297.24 119.596C297.613 119.596 297.8 119.503 297.8 119.316C297.8 118.159 297.735 116.581 297.604 114.584C297.473 112.568 297.333 110.795 297.184 109.264C297.147 108.611 297.072 107.892 296.96 107.108L296.848 106.016C296.848 106.035 296.829 105.932 296.792 105.708L296.736 105.372C296.587 105.783 296.437 106.352 296.288 107.08C296.157 107.808 296.017 108.667 295.868 109.656C295.42 112.437 295.037 114.528 294.72 115.928L294.468 116.88C294.188 117.813 294.048 118.523 294.048 119.008V119.176C294.869 119.437 295.812 119.568 296.876 119.568H297.044C297.1 119.587 297.165 119.596 297.24 119.596ZM308.483 125.308C308.353 125.308 308.231 125.243 308.119 125.112C308.007 124.981 307.933 124.832 307.895 124.664L307.811 124.132C307.755 123.908 307.727 123.768 307.727 123.712C305.637 116.227 304.489 112.027 304.283 111.112C304.115 110.44 303.733 108.573 303.135 105.512C303.117 105.624 303.107 106.007 303.107 106.66V116.796L303.163 120.8L303.219 124.776L303.051 125H302.407L302.323 124.776C302.361 124.589 302.379 124.216 302.379 123.656L302.351 118.784L302.295 113.912V110.244V107.584C302.277 106.8 302.267 105.923 302.267 104.952C302.267 104.84 302.258 104.737 302.239 104.644V104.364C302.239 104.14 302.295 103.991 302.407 103.916C302.538 103.823 302.734 103.776 302.995 103.776C303.107 103.776 303.229 103.832 303.359 103.944C303.509 104.056 303.602 104.177 303.639 104.308L304.227 107.052C304.489 108.359 304.713 109.348 304.899 110.02C305.291 111.569 305.963 114.108 306.915 117.636C307.457 119.951 307.942 121.724 308.371 122.956C308.483 122.676 308.539 122.228 308.539 121.612C308.539 119.801 308.558 118.177 308.595 116.74L308.651 111.868C308.651 111.065 308.661 110.337 308.679 109.684V107.528L308.651 103.58C308.745 103.319 308.941 103.188 309.239 103.188C309.389 103.188 309.463 103.459 309.463 104C309.463 104.243 309.454 104.439 309.435 104.588C309.435 104.737 309.426 104.849 309.407 104.924C309.407 104.98 309.407 105.017 309.407 105.036V106.828C309.407 109.311 309.398 111.523 309.379 113.464C309.361 115.424 309.351 117.627 309.351 120.072C309.351 120.539 309.323 121.276 309.267 122.284L309.211 124.496C309.211 125.037 308.969 125.308 308.483 125.308ZM315.116 125.336C315.004 125.336 314.911 125.261 314.836 125.112C314.761 124.981 314.724 124.832 314.724 124.664C314.724 124.067 314.752 123.171 314.808 121.976L314.864 119.26C314.864 118.999 314.836 118.616 314.78 118.112C314.705 117.664 314.668 117.291 314.668 116.992C314.668 116.675 314.612 116.236 314.5 115.676C314.388 115.079 314.332 114.649 314.332 114.388C314.332 114.164 314.239 113.632 314.052 112.792C313.996 112.624 313.959 112.493 313.94 112.4C313.921 112.288 313.903 112.213 313.884 112.176C313.809 111.653 313.688 111.009 313.52 110.244C313.203 108.508 312.895 107.136 312.596 106.128C312.316 105.232 312.176 104.625 312.176 104.308C312.176 104.177 312.232 104.075 312.344 104C312.456 103.907 312.587 103.86 312.736 103.86L313.072 104.084C313.128 104.924 313.38 106.427 313.828 108.592C314.276 110.739 314.612 111.971 314.836 112.288C314.873 112.195 314.967 111.383 315.116 109.852C315.247 108.489 315.433 107.136 315.676 105.792C315.9 104.56 316.171 103.944 316.488 103.944C316.581 103.944 316.656 103.953 316.712 103.972C316.768 103.972 316.815 103.991 316.852 104.028C316.889 104.065 316.908 104.14 316.908 104.252C316.908 104.42 316.871 104.616 316.796 104.84L316.684 105.4L315.956 109.572C315.863 110.113 315.779 110.785 315.704 111.588C315.629 112.372 315.592 113.063 315.592 113.66C315.592 113.828 315.601 113.977 315.62 114.108C315.639 114.257 315.648 114.416 315.648 114.584L315.48 115.004V115.228L315.536 116.32L315.592 116.908C315.648 117.655 315.676 118.215 315.676 118.588C315.676 121.537 315.657 123.423 315.62
124.244L315.704 124.328C315.704 124.365 315.713 124.393 315.732 124.412V124.524C315.732 124.748 315.676 124.935 315.564 125.084C315.471 125.252 315.321 125.336 315.116 125.336ZM325.808 125.168C325.584 125.168 325.472 124.841 325.472 124.188C325.472 123.255 325.462 122.424 325.444 121.696L325.388 119.176V116.908C325.369 116.236 325.36 115.48 325.36 114.64C325.36 112.139 325.313 109.824 325.22 107.696L325.192 106.688C325.136 105.587 325.108 104.691 325.108 104L325.192 103.888C325.21 103.851 325.248 103.804 325.304 103.748C325.322 103.692 325.369 103.655 325.444 103.636C325.481 103.617 325.546 103.608 325.64 103.608C326.293 103.608 326.881 103.757 327.404 104.056C327.945 104.355 328.384 104.765 328.72 105.288C329.373 106.315 329.7 107.481 329.7 108.788C329.7 109.628 329.56 110.487 329.28 111.364C329.018 112.241 328.617 113.035 328.076 113.744C327.516 114.509 326.89 114.957 326.2 115.088L326.256 118.196L326.312 119.708C326.386 121.5 326.424 123.031 326.424 124.3C326.424 124.599 326.377 124.823 326.284 124.972C326.209 125.103 326.05 125.168 325.808 125.168ZM326.2 114.052C326.368 114.033 326.536 113.959 326.704 113.828C326.741 113.809 326.806 113.735 326.9 113.604C326.9 113.604 326.965 113.539 327.096 113.408C328.309 112.195 328.916 110.673 328.916 108.844C328.916 107.799 328.71 106.828 328.3 105.932C328.076 105.465 327.749 105.101 327.32 104.84C326.89 104.56 326.386 104.42 325.808 104.42C325.808 105.484 325.864 107.08 325.976 109.208C326.088 111.336 326.144 112.932 326.144 113.996L326.2 114.052ZM333.994 125.168C333.863 125.168 333.751 125.112 333.658 125C333.583 124.888 333.546 124.748 333.546 124.58V124.132V123.46C333.546 122.284 333.499 120.959 333.406 119.484C333.331 117.916 333.294 116.591 333.294 115.508C333.294 114.5 333.247 112.549 333.154 109.656C333.042 107.043 332.986 105.092 332.986 103.804C332.986 103.711 333.023 103.636 333.098 103.58C333.191 103.505 333.294 103.468 333.406 103.468C333.742 103.468 333.91 103.608 333.91 103.888C333.91 107.341 333.938 109.927 333.994 111.644L334.134 116.656C334.134 117.44 334.19 118.719 334.302 120.492L334.47 123.964C334.47 124.02 334.498 124.048 334.554 124.048C334.573 124.067 334.694 124.076 334.918 124.076H336.654C336.897 124.076 337.018 124.244 337.018 124.58C337.018 124.729 336.99 124.86 336.934 124.972C336.878 125.065 336.794 125.112 336.682 125.112L336.486 125.14H336.262C335.87 125.159 335.114 125.168 333.994 125.168ZM345.364 125C345.215 125 345.084 124.953 344.972 124.86C344.879 124.767 344.832 124.655 344.832 124.524V120.856C344.832 120.632 344.356 120.427 343.404 120.24C342.452 120.053 341.668 119.96 341.052 119.96C341.015 119.96 340.949 120.1 340.856 120.38C340.781 120.66 340.725 120.865 340.688 120.996C340.445 121.967 340.203 123.003 339.96 124.104L339.82 124.72C339.783 124.869 339.689 124.944 339.54 124.944C339.391 124.944 339.251 124.897 339.12 124.804C339.008 124.711 338.952 124.599 338.952 124.468L338.98 124.412V124.384L339.288 122.984C339.512 122.107 339.708 121.248 339.876 120.408C340.063 119.456 340.203 118.84 340.296 118.56C340.445 117.944 340.744 116.404 341.192 113.94L341.36 113.016C341.845 110.141 342.181 108.331 342.368 107.584C342.461 107.136 342.629 106.473 342.872 105.596C342.965 105.223 343.096 104.849 343.264 104.476C343.432 104.159 343.572 104 343.684 104C343.983 104 344.197 104.093 344.328 104.28C344.421 104.448 344.561 105.372 344.748 107.052C344.953 108.732 345.131 110.431 345.28 112.148L345.644 116.796C345.644 117.599 345.7 118.812 345.812 120.436C345.924 122.079 345.98 123.301 345.98 124.104V124.216C345.98 124.421 345.952 124.608 345.896 124.776C345.821 124.925 345.644 125 345.364 125ZM344.244 119.596C344.617 119.596 344.804 119.503 344.804 119.316C344.804 118.159 344.739 116.581 344.608 114.584C344.477 112.568 344.337 110.795 344.188 109.264C344.151 108.611 344.076 107.892 343.964 107.108L343.852 106.016C343.852 106.035 343.833 105.932 343.796 105.708L343.74 105.372C343.591 105.783 343.441 106.352 343.292 107.08C343.161 107.808 343.021 108.667 342.872 109.656C342.424 112.437 342.041 114.528 341.724 115.928L341.472 116.88C341.192 117.813 341.052
118.523 341.052 119.008V119.176C341.873 119.437 342.816 119.568 343.88 119.568H344.048C344.104 119.587 344.169 119.596 344.244 119.596ZM353.527 125.448C353.004 125.448 352.454 125.243 351.875 124.832C351.296 124.421 350.886 123.955 350.643 123.432C350.419 122.947 350.186 121.407 349.943 118.812C349.719 116.217 349.607 114.285 349.607 113.016V111.532C349.588 111.103 349.579 110.627 349.579 110.104C349.579 109.133 349.635 108.172 349.747 107.22C349.822 106.753 349.915 106.352 350.027 106.016C350.158 105.68 350.335 105.353 350.559 105.036C350.97 104.401 351.586 103.981 352.407 103.776C352.836 103.664 353.312 103.608 353.835 103.608C354.19 103.608 354.544 103.711 354.899 103.916C355.272 104.121 355.459 104.364 355.459 104.644C355.459 104.849 355.31 104.952 355.011 104.952C354.899 104.952 354.684 104.887 354.367 104.756C354.087 104.625 353.835 104.56 353.611 104.56C353.088 104.56 352.612 104.672 352.183 104.896C351.772 105.101 351.446 105.381 351.203 105.736C350.998 106.035 350.82 106.445 350.671 106.968C350.522 107.491 350.428 108.013 350.391 108.536C350.335 109.003 350.307 109.563 350.307 110.216L350.335 111.784C350.354 112.232 350.363 112.717 350.363 113.24C350.363 114.528 350.494 116.423 350.755 118.924C351.016 121.425 351.268 122.872 351.511 123.264C351.735 123.619 352.062 123.889 352.491 124.076C352.939 124.263 353.406 124.356 353.891 124.356C354.75 124.356 355.403 124.085 355.851 123.544C356.019 123.32 356.196 123.208 356.383 123.208C356.551 123.208 356.635 123.339 356.635 123.6C356.635 123.936 356.532 124.235 356.327 124.496C356.122 124.739 355.842 124.925 355.487 125.056C354.89 125.317 354.236 125.448 353.527 125.448ZM360.305 125.168C359.857 125.168 359.54 125.121 359.353 125.028C359.185 124.953 359.101 124.795 359.101 124.552V124.02C359.083 123.871 359.073 123.703 359.073 123.516V123.46L359.101 119.372L359.073 107.808C359.073 106.613 359.055 105.577 359.017 104.7C359.017 104.476 359.064 104.289 359.157 104.14C359.251 103.991 359.372 103.916 359.521 103.916H361.257C361.519 103.916 361.715 103.935 361.845 103.972C362.032 104.028 362.125 104.187 362.125 104.448C362.125 104.597 362.069 104.719 361.957 104.812C361.845 104.905 361.724 104.961 361.593 104.98H361.117L360.669 104.952L360.221 104.924C360.091 104.924 359.997 104.952 359.941 105.008C359.904 105.045 359.885 105.129 359.885 105.26C359.885 106.137 359.895 106.931 359.913 107.64V110.02V113.52C359.913 113.557 359.932 113.576 359.969 113.576H359.997H360.025C360.492 113.539 360.996 113.52 361.537 113.52C361.836 113.52 361.985 113.651 361.985 113.912C361.985 114.099 361.948 114.229 361.873 114.304C361.817 114.36 361.715 114.388 361.565 114.388H359.969C359.895 114.388 359.857 114.435 359.857 114.528L359.913 118.672C359.951 119.96 359.969 121.444 359.969 123.124V124.16H361.173H362.349H362.601C362.937 124.16 363.105 124.281 363.105 124.524C363.105 124.823 363.021 125 362.853 125.056C362.629 125.131 362.172 125.168 361.481 125.168H360.305ZM366.466 126.988C366.261 126.951 366.158 126.885 366.158 126.792C366.158 126.699 366.233 126.549 366.382 126.344C366.55 126.12 366.634 126.008 366.634 126.008C366.765 125.803 366.877 125.541 366.97 125.224C367.026 125.056 367.054 124.925 367.054 124.832C367.073 124.72 367.063 124.655 367.026 124.636C366.802 124.617 366.615 124.524 366.466 124.356C366.335 124.188 366.27 124.011 366.27 123.824C366.27 123.563 366.373 123.357 366.578 123.208C366.802 123.059 367.045 122.984 367.306 122.984C367.605 122.984 367.81 123.087 367.922 123.292C368.053 123.497 368.118 123.731 368.118 123.992C368.118 124.44 367.978 124.953 367.698 125.532C367.418 126.129 367.063 126.605 366.634 126.96L366.466 126.988ZM384.809 125.644C384.567 125.644 384.399 125.579 384.305 125.448C384.231 125.336 384.193 125.14 384.193 124.86V122.312C384.193 121.043 384.156 119.503 384.081 117.692C384.063 117.356 384.053 116.871 384.053 116.236C383.997 114.911 383.969 113.865 383.969 113.1L383.997 111.532C384.016 111.065 384.025 110.543 384.025 109.964C384.025 109.46 384.016 109.012 383.997 108.62C383.979 108.34 383.96 108.107 383.941 107.92C383.941 107.733 383.932 107.584 383.913
107.472L383.857 107.668C383.652 109.031 383.344 110.823 382.933 113.044C382.523 115.265 382.187 117.048 381.925 118.392C381.664 119.587 381.496 120.436 381.421 120.94C381.384 121.183 381.3 121.379 381.169 121.528C381.057 121.677 380.927 121.752 380.777 121.752C380.628 121.752 380.497 121.677 380.385 121.528C380.273 121.379 380.208 121.164 380.189 120.884C380.059 119.988 379.583 117.487 378.761 113.38C377.94 109.273 377.483 107.145 377.389 106.996C377.333 108.676 377.305 110.561 377.305 112.652C377.305 114.295 377.315 115.779 377.333 117.104C377.352 118.429 377.361 119.913 377.361 121.556C377.361 121.836 377.389 122.275 377.445 122.872L377.501 124.216C377.501 124.571 377.436 124.813 377.305 124.944C376.764 124.944 376.493 124.459 376.493 123.488V118.812L376.521 115.984C376.54 115.144 376.549 114.192 376.549 113.128C376.549 111.896 376.559 110.795 376.577 109.824L376.633 106.492V104.028C376.633 103.935 376.671 103.851 376.745 103.776C376.839 103.701 376.932 103.664 377.025 103.664C377.175 103.664 377.277 103.739 377.333 103.888C377.501 104.448 377.921 106.1 378.593 108.844C379.265 111.588 379.769 113.707 380.105 115.2C380.273 116.077 380.544 117.627 380.917 119.848L381.113 118.756C381.169 118.42 381.253 117.953 381.365 117.356C381.589 115.9 381.729 115.079 381.785 114.892L383.073 108.032L383.325 106.576L383.633 105.008L383.773 104.168C383.792 103.981 383.848 103.841 383.941 103.748C384.035 103.636 384.137 103.58 384.249 103.58C384.343 103.58 384.427 103.627 384.501 103.72C384.576 103.813 384.613 103.944 384.613 104.112V106.884C384.613 108.284 384.697 110.403 384.865 113.24C384.996 115.853 385.061 117.953 385.061 119.54C385.061 120.044 385.089 120.819 385.145 121.864C385.183 123.208 385.201 124.141 385.201 124.664C385.201 125.075 385.173 125.345 385.117 125.476C385.043 125.588 384.94 125.644 384.809 125.644ZM392.873 125.588C390.279 125.588 388.981 121.099 388.981 112.12V111C388.981 109.432 389.075 108.069 389.261 106.912C389.373 106.184 389.523 105.587 389.709 105.12C389.915 104.653 390.185 104.28 390.521 104C390.839 103.683 391.249 103.524 391.753 103.524C392.201 103.524 392.612 103.617 392.985 103.804C393.359 103.972 393.667 104.196 393.909 104.476C394.115 104.737 394.301 105.083 394.469 105.512C394.637 105.941 394.768 106.352 394.861 106.744L395.085 108.06C395.533 111.252 395.757 114.08 395.757 116.544V116.628C395.757 117.561 395.739 118.42 395.701 119.204C395.664 120.137 395.561 121.117 395.393 122.144C395.319 122.648 395.207 123.087 395.057 123.46C394.927 123.833 394.749 124.207 394.525 124.58C394.133 125.252 393.583 125.588 392.873 125.588ZM392.929 124.804C393.228 124.804 393.499 124.636 393.741 124.3C393.984 123.945 394.171 123.46 394.301 122.844C394.6 121.537 394.787 120.259 394.861 119.008C394.899 118 394.917 117.02 394.917 116.068V115.956L394.889 113.156C394.852 112.148 394.74 110.841 394.553 109.236C394.404 108.097 394.096 106.931 393.629 105.736C393.443 105.269 393.191 104.905 392.873 104.644C392.575 104.383 392.248 104.252 391.893 104.252C391.576 104.252 391.296 104.401 391.053 104.7C390.811 104.999 390.615 105.419 390.465 105.96C390.129 107.211 389.943 108.368 389.905 109.432C389.849 110.347 389.821 111.289 389.821 112.26V113.632C389.821 114.883 389.943 116.469 390.185 118.392C390.335 119.605 390.521 120.66 390.745 121.556C390.969 122.452 391.268 123.208 391.641 123.824C392.015 124.477 392.444 124.804 392.929 124.804ZM402.37 125.224C402.146 125.168 402.043 125.14 402.062 125.14C401.726 123.759 401.353 121.696 400.942 118.952L399.402 108.956L399.15 107.724C398.739 106.119 398.534 104.989 398.534 104.336C398.534 104.205 398.571 104.093 398.646 104C398.739 103.888 398.833 103.832 398.926 103.832C398.982 103.832 399.047 103.851 399.122 103.888C399.215 103.925 399.299 104.028 399.374 104.196C399.449 104.345 399.486 104.485 399.486 104.616L399.542 105.008L399.934 107.164L400.186 108.648L401.586 118.252L401.95 120.912C402.099 121.808 402.221 122.657 402.314 123.46L402.51 121.472L402.818 118.252L403.49 112.12C403.658 110.384 403.779 109.245 403.854 108.704L403.994 107.248L404.19 105.848C404.283 105.288 404.349
104.765 404.386 104.28C404.423 103.925 404.601 103.748 404.918 103.748L405.086 103.86H405.03L405.31 104.084C405.31 104.625 405.235 105.419 405.086 106.464L404.918 107.556L404.834 108.256C404.591 110.291 404.442 111.56 404.386 112.064C404.106 114.435 403.807 117.001 403.49 119.764C403.191 122.527 403.033 124.151 403.014 124.636C402.865 125.047 402.687 125.252 402.482 125.252L402.37 125.224ZM402.342 123.628L402.314 123.544L402.258 123.628H402.342ZM410.692 124.888C410.244 124.869 409.674 124.86 408.984 124.86C408.853 124.86 408.732 124.813 408.62 124.72C408.526 124.627 408.48 124.524 408.48 124.412C408.48 124.169 408.638 124.048 408.956 124.048H410.048C410.048 121.901 409.982 119.195 409.852 115.928C409.777 113.315 409.702 111.261 409.628 109.768L409.656 108.34V106.492C409.656 105.559 409.637 104.961 409.6 104.7H408.62C408.433 104.7 408.34 104.569 408.34 104.308C408.34 104.14 408.414 104.009 408.564 103.916C408.694 103.86 409.04 103.832 409.6 103.832H410.383C410.663 103.851 411.018 103.86 411.448 103.86C411.597 103.86 411.718 103.897 411.812 103.972C411.905 104.028 411.952 104.121 411.952 104.252C411.952 104.364 411.924 104.467 411.868 104.56C411.812 104.653 411.728 104.7 411.616 104.7C411.485 104.7 411.373 104.691 411.28 104.672H410.944H410.664C410.477 104.672 410.365 104.691 410.328 104.728L410.272 104.84C410.272 106.296 410.393 109.236 410.636 113.66C410.86 117.748 410.972 120.688 410.972 122.48V123.264C410.953 123.507 410.944 123.759 410.944 124.02H411.952C412.381 124.02 412.596 124.151 412.596 124.412C412.596 124.524 412.549 124.636 412.456 124.748C412.381 124.841 412.297 124.888 412.204 124.888H410.692ZM417.426 125.168C416.978 125.168 416.661 125.121 416.474 125.028C416.306 124.953 416.222 124.795 416.222 124.552V124.02C416.204 123.871 416.194 123.703 416.194 123.516V123.46L416.222 119.372L416.194 107.808C416.194 106.613 416.176 105.577 416.138 104.7C416.138 104.476 416.185 104.289 416.278 104.14C416.372 103.991 416.493 103.916 416.642 103.916H418.378C418.64 103.916 418.836 103.935 418.966 103.972C419.153 104.028 419.246 104.187 419.246 104.448C419.246 104.597 419.19 104.719 419.078 104.812C418.966 104.905 418.845 104.961 418.714 104.98H418.238L417.79 104.952L417.342 104.924C417.212 104.924 417.118 104.952 417.062 105.008C417.025 105.045 417.006 105.129 417.006 105.26C417.006 106.137 417.016 106.931 417.034 107.64V110.02V113.52C417.034 113.557 417.053 113.576 417.09 113.576H417.118H417.146C417.613 113.539 418.117 113.52 418.658 113.52C418.957 113.52 419.106 113.651 419.106 113.912C419.106 114.099 419.069 114.229 418.994 114.304C418.938 114.36 418.836 114.388 418.686 114.388H417.09C417.016 114.388 416.978 114.435 416.978 114.528L417.034 118.672C417.072 119.96 417.09 121.444 417.09 123.124V124.16H418.294H419.47H419.722C420.058 124.16 420.226 124.281 420.226 124.524C420.226 124.823 420.142 125 419.974 125.056C419.75 125.131 419.293 125.168 418.602 125.168H417.426ZM424.343 125.168C423.652 125.168 423.307 125.037 423.307 124.776C423.307 123.992 423.335 122.807 423.391 121.22L423.447 117.692C423.447 116.385 423.419 114.435 423.363 111.84C423.288 109.544 423.251 107.603 423.251 106.016C423.251 104.672 423.494 104 423.979 104C425.23 104 426.191 104.401 426.863 105.204C427.554 106.007 427.899 107.071 427.899 108.396C427.899 109.889 427.302 111.439 426.107 113.044C427.096 114.033 427.787 114.976 428.179 115.872C428.59 116.768 428.795 117.841 428.795 119.092C428.795 119.857 428.767 120.473 428.711 120.94C428.674 121.388 428.59 121.808 428.459 122.2C428.328 122.611 428.142 122.965 427.899 123.264C427.675 123.563 427.367 123.843 426.975 124.104C426.602 124.365 426.116 124.627 425.519 124.888C425.295 124.944 425.108 124.991 424.959 125.028C424.716 125.121 424.53 125.168 424.399 125.168H424.343ZM424.315 112.904C424.726 112.904 425.118 112.727 425.491 112.372C425.864 112.017 426.172 111.551 426.415 110.972C426.658 110.431 426.844 109.871 426.975 109.292C427.106 108.695 427.171 108.153 427.171 107.668C427.171 107.015 426.928 106.399 426.443 105.82C425.976 105.241 425.444 104.952 424.847 104.952C424.362 104.952 424.119 105.353 424.119
106.156C424.119 107.407 424.138 108.527 424.175 109.516L424.231 112.876L424.315 112.904ZM424.539 124.076C425.174 124.076 425.752 123.889 426.275 123.516C426.816 123.124 427.236 122.611 427.535 121.976C427.852 121.341 428.011 120.66 428.011 119.932C428.011 116.591 427.208 114.584 425.603 113.912C425.454 113.912 425.211 113.959 424.875 114.052C424.558 114.164 424.343 114.22 424.231 114.22C424.324 117.263 424.371 120.539 424.371 124.048H424.455L424.539 124.076ZM437.594 125C437.445 125 437.314 124.953 437.202 124.86C437.109 124.767 437.062 124.655 437.062 124.524V120.856C437.062 120.632 436.586 120.427 435.634 120.24C434.682 120.053 433.898 119.96 433.282 119.96C433.245 119.96 433.18 120.1 433.086 120.38C433.012 120.66 432.956 120.865 432.918 120.996C432.676 121.967 432.433 123.003 432.19 124.104L432.05 124.72C432.013 124.869 431.92 124.944 431.77 124.944C431.621 124.944 431.481 124.897 431.35 124.804C431.238 124.711 431.182 124.599 431.182 124.468L431.21 124.412V124.384L431.518 122.984C431.742 122.107 431.938 121.248 432.106 120.408C432.293 119.456 432.433 118.84 432.526 118.56C432.676 117.944 432.974 116.404 433.422 113.94L433.59 113.016C434.076 110.141 434.412 108.331 434.598 107.584C434.692 107.136 434.86 106.473 435.102 105.596C435.196 105.223 435.326 104.849 435.494 104.476C435.662 104.159 435.802 104 435.914 104C436.213 104 436.428 104.093 436.558 104.28C436.652 104.448 436.792 105.372 436.978 107.052C437.184 108.732 437.361 110.431 437.51 112.148L437.874 116.796C437.874 117.599 437.93 118.812 438.042 120.436C438.154 122.079 438.21 123.301 438.21 124.104V124.216C438.21 124.421 438.182 124.608 438.126 124.776C438.052 124.925 437.874 125 437.594 125ZM436.474 119.596C436.848 119.596 437.034 119.503 437.034 119.316C437.034 118.159 436.969 116.581 436.838 114.584C436.708 112.568 436.568 110.795 436.418 109.264C436.381 108.611 436.306 107.892 436.194 107.108L436.082 106.016C436.082 106.035 436.064 105.932 436.026 105.708L435.97 105.372C435.821 105.783 435.672 106.352 435.522 107.08C435.392 107.808 435.252 108.667 435.102 109.656C434.654 112.437 434.272 114.528 433.954 115.928L433.702 116.88C433.422 117.813 433.282 118.523 433.282 119.008V119.176C434.104 119.437 435.046 119.568 436.11 119.568H436.278C436.334 119.587 436.4 119.596 436.474 119.596ZM443.322 125.616C442.986 125.616 442.724 125.597 442.538 125.56C442.37 125.541 442.183 125.485 441.978 125.392C441.754 125.28 441.586 125.121 441.474 124.916C441.474 124.692 441.576 124.58 441.782 124.58C441.987 124.58 442.248 124.645 442.566 124.776C442.864 124.925 443.116 125 443.322 125C443.732 125 444.106 124.832 444.442 124.496C444.796 124.16 445.067 123.721 445.254 123.18C445.627 122.116 445.814 121.173 445.814 120.352C445.814 119.437 445.683 118.513 445.422 117.58C445.16 116.647 444.815 115.769 444.386 114.948C444.292 114.743 444.134 114.435 443.91 114.024C443.443 113.091 443.088 112.363 442.846 111.84C442.603 111.317 442.388 110.739 442.202 110.104C441.94 109.264 441.81 108.359 441.81 107.388C441.81 106.772 441.903 106.184 442.09 105.624C442.295 105.045 442.612 104.551 443.042 104.14C443.508 103.711 444.031 103.496 444.61 103.496C444.834 103.496 445.104 103.589 445.422 103.776C445.739 103.944 445.898 104.112 445.898 104.28C445.898 104.429 445.842 104.504 445.73 104.504C445.618 104.504 445.468 104.457 445.282 104.364C445.114 104.271 444.955 104.224 444.806 104.224C444.376 104.224 443.994 104.383 443.658 104.7C443.34 105.017 443.107 105.409 442.958 105.876C442.827 106.268 442.762 106.697 442.762 107.164C442.762 107.892 442.855 108.648 443.042 109.432C443.228 110.197 443.48 110.916 443.798 111.588L444.778 113.632L445.058 114.22C445.45 115.023 445.748 115.685 445.954 116.208C446.178 116.731 446.364 117.319 446.514 117.972C446.719 118.849 446.822 119.689 446.822 120.492C446.822 121.575 446.542 122.676 445.982 123.796C445.702 124.337 445.328 124.776 444.862 125.112C444.395 125.448 443.882 125.616 443.322 125.616ZM451.77 125.168C451.322 125.168 451.005 125.121 450.818 125.028C450.65 124.953 450.566 124.795 450.566 124.552V124.02C450.547 123.871 450.538 123.703 450.538
123.516V123.46L450.566 119.372L450.538 107.808C450.538 106.613 450.519 105.577 450.482 104.7C450.482 104.476 450.529 104.289 450.622 104.14C450.715 103.991 450.837 103.916 450.986 103.916H452.722C452.983 103.916 453.179 103.935 453.31 103.972C453.497 104.028 453.59 104.187 453.59 104.448C453.59 104.597 453.534 104.719 453.422 104.812C453.31 104.905 453.189 104.961 453.058 104.98H452.582L452.134 104.952L451.686 104.924C451.555 104.924 451.462 104.952 451.406 105.008C451.369 105.045 451.35 105.129 451.35 105.26C451.35 106.137 451.359 106.931 451.378 107.64V110.02V113.52C451.378 113.557 451.397 113.576 451.434 113.576H451.462H451.49C451.957 113.539 452.461 113.52 453.002 113.52C453.301 113.52 453.45 113.651 453.45 113.912C453.45 114.099 453.413 114.229 453.338 114.304C453.282 114.36 453.179 114.388 453.03 114.388H451.434C451.359 114.388 451.322 114.435 451.322 114.528L451.378 118.672C451.415 119.96 451.434 121.444 451.434 123.124V124.16H452.638H453.814H454.066C454.402 124.16 454.57 124.281 454.57 124.524C454.57 124.823 454.486 125 454.318 125.056C454.094 125.131 453.637 125.168 452.946 125.168H451.77Z" fill="#fff"/>
</svg>